<svg width="40" height="40" viewBox="0 0 40 40" fill="none" xmlns="http://www.w3.org/2000/svg">
<mask id="mask0_341_798" style="mask-type:luminance" maskUnits="userSpaceOnUse" x="37" y="29" width="3" height="3">
<path d="M37.3335 29.333H39.3543V31.9997H37.3335V29.333Z" fill="white"/>
</mask>
<g mask="url(#mask0_341_798)">
<path d="M38.4277 31.1706V30.9831H38.9277V29.5872L38.9069 29.5664C38.8236 29.6081 38.7454 29.6445 38.6777 29.6706C38.6204 29.6862 38.5423 29.707 38.4486 29.7331V29.5247C38.5423 29.5143 38.6413 29.4935 38.7402 29.4622C38.834 29.4206 38.9173 29.3737 38.9902 29.3164H39.1569V30.9831H39.5944V31.1706H38.4277Z" fill="#EAB308"/>
</g>
<mask id="mask1_341_798" style="mask-type:luminance" maskUnits="userSpaceOnUse" x="13" y="1" width="14" height="9">
<path d="M13.3335 1.97949H26.6668V9.33366H13.3335V1.97949Z" fill="white"/>
</mask>
<g mask="url(#mask1_341_798)">
<path d="M25.5314 9.18783C26.1408 9.18783 26.6512 8.70866 26.6512 8.13574V5.76595C26.6512 5.22428 26.1981 4.77116 25.6564 4.71387L22.1147 3.66178C21.995 2.69824 21.12 1.97949 20.0002 1.97949C18.8804 1.97949 18.0054 2.69824 17.8856 3.66178L14.3439 4.71387C13.771 4.77116 13.3491 5.22428 13.3491 5.76595V8.13574C13.3491 8.70866 13.8335 9.18783 14.4689 9.18783H25.5314ZM14.5575 5.88574C14.5887 5.88574 14.62 5.88574 14.62 5.85449L18.672 4.65137C18.9741 4.56283 19.1512 4.26074 19.0939 3.96387C19.0939 3.93262 19.0939 3.90137 19.0939 3.83887C19.0939 3.39095 19.547 3.15137 20.0002 3.15137C20.4533 3.15137 20.9064 3.39095 20.9064 3.83887C20.9064 3.87012 20.9064 3.90137 20.9064 3.96387C20.8491 4.26074 21.0262 4.56283 21.3283 4.65137L25.3804 5.85449C25.4116 5.85449 25.4429 5.85449 25.4429 5.88574V7.9847H14.5575V5.88574Z" fill="#EAB308"/>
</g>
<path d="M17.005 26.9375L15.4634 28.4687L14.979 27.9896C14.7394 27.75 14.3748 27.75 14.1353 27.9896C13.8905 28.2292 13.8905 28.5885 14.1353 28.8281L15.0415 29.7292C15.1613 29.849 15.3123 29.9115 15.4634 29.9115C15.6144 29.9115 15.7655 29.849 15.8853 29.7292L17.854 27.776C18.0936 27.5365 18.0936 27.1771 17.854 26.9375C17.6092 26.6979 17.2498 26.6979 17.005 26.9375Z" fill="#EAB308"/>
<path d="M26.6509 21.5003C26.6509 21.1722 26.38 20.9014 26.0467 20.9014H19.3957C19.0623 20.9014 18.7915 21.1722 18.7915 21.5003C18.7915 21.8337 19.0623 22.0993 19.3957 22.0993H26.0467C26.38 22.0993 26.6509 21.8337 26.6509 21.5003Z" fill="#EAB308"/>
<path d="M18.2448 15.734C18.3386 15.7965 18.3959 15.7965 18.4896 15.7965C18.7292 15.7965 18.9428 15.6455 19.0313 15.432L19.2448 14.8955H20.698L20.9063 15.432C21.0001 15.6715 21.2396 15.7965 21.4532 15.7965C21.5417 15.7965 21.6042 15.7965 21.6928 15.734C21.9948 15.6143 22.1459 15.2549 22.0261 14.9528L20.5157 11.3486V11.3174C20.5157 11.2913 20.4844 11.2601 20.4844 11.2288C20.4844 11.1976 20.4532 11.1976 20.4532 11.1663L20.4219 11.1403C20.3907 11.109 20.3907 11.109 20.3646 11.0778L20.3334 11.0465C20.2709 11.0205 20.1823 10.958 20.1198 10.958H20.0886C20.0626 10.958 20.0313 10.958 20.0001 10.958C19.9688 10.958 19.9375 10.958 19.9115 10.958H19.8803C19.7865 10.9893 19.7292 11.0205 19.6667 11.0465L19.6355 11.0778C19.6094 11.0778 19.6094 11.109 19.5782 11.1403C19.5782 11.1403 19.5469 11.1663 19.5469 11.1976L19.5157 11.2288C19.4844 11.2601 19.4844 11.2913 19.4844 11.3174C19.4844 11.3174 19.4844 11.3174 19.4844 11.3486L17.974 14.9528C17.7917 15.2809 17.9428 15.6143 18.2448 15.734ZM20.0001 13.1507L20.2396 13.6924H19.7865L20.0001 13.1507Z" fill="#EAB308"/>
<path d="M27.047 11.1408C26.8023 10.9273 26.4116 10.9585 26.1981 11.2293L25.1408 12.4585L24.0835 11.1981C23.87 10.9585 23.4793 10.9012 23.2345 11.1096C22.995 11.3179 22.9325 11.7085 23.146 11.9481L24.3231 13.3596L23.146 14.771C22.9325 15.0158 22.9637 15.4064 23.2345 15.6148C23.3543 15.7033 23.4793 15.7658 23.6304 15.7658C23.8127 15.7658 23.9637 15.7033 24.0835 15.5523L25.1408 14.2918L26.1981 15.5523C26.3179 15.7033 26.5002 15.7658 26.6512 15.7658C26.8023 15.7658 26.9273 15.7033 27.047 15.6148C27.2866 15.4064 27.3491 15.0158 27.1356 14.771L25.9273 13.3908L27.1043 11.9793C27.3179 11.7085 27.2866 11.3491 27.047 11.1408Z" fill="#EAB308"/>
<path d="M30.2814 6.78613V22.7913C30.672 22.6715 31.0679 22.583 31.4897 22.4893V6.78613C31.4897 6.12467 30.9481 5.58301 30.2814 5.58301H27.8647C27.8647 5.6403 27.8647 5.7028 27.8647 5.7653V6.78613H30.2814Z" fill="#EAB308"/>
<path d="M18.7915 28.109C18.7915 28.4372 19.0623 28.708 19.3957 28.708H24.9894C25.078 28.2861 25.1717 27.8955 25.3228 27.5049H19.3957C19.0623 27.5049 18.7915 27.7757 18.7915 28.109Z" fill="#EAB308"/>
<mask id="mask2_341_798" style="mask-type:luminance" maskUnits="userSpaceOnUse" x="25" y="22" width="15" height="15">
<path d="M25.3335 22.667H39.3543V36.818H25.3335V22.667Z" fill="white"/>
</mask>
<g mask="url(#mask2_341_798)">
<path d="M32.6979 23.6045C29.0417 23.6045 26.0469 26.5785 26.0469 30.2087C26.0469 33.8441 29.0417 36.818 32.6979 36.818C36.3594 36.818 39.3542 33.8441 39.3542 30.2087C39.3542 26.5785 36.3594 23.6045 32.6979 23.6045ZM32.6979 35.6149C29.7083 35.6149 27.2552 33.1826 27.2552 30.2087C27.2552 27.2399 29.7083 24.8024 32.6979 24.8024C35.6927 24.8024 38.1406 27.2399 38.1406 30.2087C38.1406 33.1826 35.6927 35.6149 32.6979 35.6149Z" fill="#EAB308"/>
</g>
<path d="M34.547 27.2973C34.2709 27.115 33.8803 27.2088 33.698 27.4796L30.672 32.2817C30.4949 32.5525 30.5834 32.9432 30.8543 33.1255C30.948 33.1827 31.0678 33.214 31.1876 33.214C31.4011 33.214 31.5834 33.1255 31.7032 32.9432L34.7241 28.1411C34.9064 27.839 34.8178 27.4796 34.547 27.2973Z" fill="#EAB308"/>
<path d="M32.0936 28.1097C32.0936 27.266 31.4321 26.6045 30.5832 26.6045C29.7342 26.6045 29.0728 27.266 29.0728 28.1097C29.0728 28.9482 29.7342 29.6097 30.5832 29.6097C31.4321 29.6097 32.0936 28.9482 32.0936 28.1097ZM30.5832 28.4066C30.4009 28.4066 30.2811 28.2868 30.2811 28.1097C30.2811 27.9274 30.4009 27.8076 30.5832 27.8076C30.7655 27.8076 30.8853 27.9274 30.8853 28.1097C30.8853 28.2868 30.7655 28.4066 30.5832 28.4066Z" fill="#EAB308"/>
<path d="M34.8175 30.8125C33.9686 30.8125 33.3071 31.474 33.3071 32.3125C33.3071 33.151 33.9686 33.8125 34.8175 33.8125C35.6613 33.8125 36.328 33.151 36.328 32.3125C36.328 31.474 35.6613 30.8125 34.8175 30.8125ZM34.8175 32.6146C34.6353 32.6146 34.5155 32.4948 34.5155 32.3125C34.5155 32.1302 34.6353 32.0104 34.8175 32.0104C34.9998 32.0104 35.1196 32.1302 35.1196 32.3125C35.1196 32.4948 34.9998 32.6146 34.8175 32.6146Z" fill="#EAB308"/>
<path d="M8.51025 6.78613V11.3174C8.93213 11.3486 9.32796 11.4111 9.71859 11.4997V6.78613H12.1353V5.7653C12.1353 5.7028 12.1353 5.6403 12.1353 5.58301H9.71859C9.05192 5.58301 8.51025 6.12467 8.51025 6.78613Z" fill="#EAB308"/>
<path d="M9.71859 32.6143V27.8955C9.32796 27.9893 8.93213 28.0465 8.51025 28.0778V32.6143C8.51025 33.2757 9.05192 33.8122 9.71859 33.8122H25.7134C25.505 33.4215 25.354 33.0309 25.203 32.6143H9.71859Z" fill="#EAB308"/>
<path d="M17.8542 20.9326C17.6094 20.6878 17.25 20.6878 17.0052 20.9326L16.099 21.8337C15.9167 22.5524 15.6146 23.2451 15.25 23.8753C15.3125 23.9014 15.4063 23.9014 15.4635 23.9014C15.6146 23.9014 15.7656 23.8441 15.8854 23.7243L17.8542 21.7712C18.0937 21.5316 18.0937 21.1722 17.8542 20.9326Z" fill="#EAB308"/>
<path d="M15.3748 15.7653C15.5832 15.6715 15.7655 15.4632 15.7655 15.1924V12.1924H16.9738C17.3071 12.1924 17.5832 11.9215 17.5832 11.5882C17.5832 11.2601 17.3071 10.9893 16.9738 10.9893H13.3488C13.0155 10.9893 12.7446 11.2601 12.7446 11.5882C12.7446 11.9215 13.0155 12.1924 13.3488 12.1924H14.5571V14.5049C14.8592 14.8955 15.13 15.3122 15.3748 15.7653Z" fill="#EAB308"/>
<mask id="mask3_341_798" style="mask-type:luminance" maskUnits="userSpaceOnUse" x="0" y="12" width="16" height="16">
<path d="M0.645996 12H16.0002V28H0.645996V12Z" fill="white"/>
</mask>
<g mask="url(#mask3_341_798)">
<path d="M15.1616 19.6976C15.1616 15.734 11.896 12.4893 7.90641 12.4893C3.91162 12.4893 0.645996 15.7028 0.645996 19.6976C0.645996 23.6924 3.91162 26.9059 7.90641 26.9059C11.896 26.9059 15.1616 23.6611 15.1616 19.6976ZM7.90641 25.7028C4.57829 25.7028 1.85954 22.9997 1.85954 19.6976C1.85954 16.3955 4.57829 13.6924 7.90641 13.6924C11.2293 13.6924 13.9533 16.3955 13.9533 19.6976C13.9533 22.9997 11.2293 25.7028 7.90641 25.7028Z" fill="#EAB308"/>
</g>
<path d="M6.81771 17.2965H9.71875C10.0521 17.2965 10.3229 17.0257 10.3229 16.6924C10.3229 16.3643 10.0521 16.0934 9.71875 16.0934H8.51042V15.4945C8.51042 15.1611 8.23958 14.8955 7.90625 14.8955C7.57292 14.8955 7.30208 15.1611 7.30208 15.4945V16.0934H6.81771C6.08854 16.0934 5.48438 16.6924 5.48438 17.4476V18.9476C5.48438 19.6976 6.08854 20.2965 6.81771 20.2965H8.99479C9.05208 20.2965 9.11458 20.359 9.11458 20.4476V21.9788C9.11458 22.0726 9.05208 22.1299 8.99479 22.1299H6.08854C5.75521 22.1299 5.48438 22.4007 5.48438 22.734C5.48438 23.0622 5.75521 23.333 6.08854 23.333H7.30208V23.9945C7.30208 24.3226 7.57292 24.5934 7.90625 24.5934C8.23958 24.5934 8.51042 24.3226 8.51042 23.9945V23.3018H8.99479C9.71875 23.3018 10.3229 22.7028 10.3229 21.9528V20.4215C10.3229 19.6663 9.71875 19.0674 8.99479 19.0674H6.81771C6.75521 19.0674 6.69271 19.0101 6.69271 18.9163V17.4163C6.69271 17.3538 6.75521 17.2965 6.81771 17.2965Z" fill="#EAB308"/>
</svg>
